<svg width="79" height="79" viewBox="0 0 79 79" fill="none" xmlns="http://www.w3.org/2000/svg">
<g clip-path="url(#clip0_8_319)">
<mask id="mask0_8_319" style="mask-type:luminance" maskUnits="userSpaceOnUse" x="0" y="0" width="79" height="79">
<path d="M79 0H0V79H79V0Z" fill="white"/>
</mask>
<g mask="url(#mask0_8_319)">
<path fill-rule="evenodd" clip-rule="evenodd" d="M3.29167 0C5.10959 0 6.58333 1.47373 6.58333 3.29167V26.3333H16.4583C14.6404 26.3333 13.1667 24.8596 13.1667 23.0417V16.4583C13.1667 14.6404 14.6404 13.1667 16.4583 13.1667H29.625C31.4429 13.1667 32.9167 14.6404 32.9167 16.4583V23.0417C32.9167 24.8596 31.4429 26.3333 29.625 26.3333H42.7917C40.9737 26.3333 39.5 24.8596 39.5 23.0417V9.875C39.5 8.05708 40.9737 6.58333 42.7917 6.58333H62.5417C64.3597 6.58333 65.8333 8.05708 65.8333 9.875V23.0417C65.8333 24.8596 64.3597 26.3333 62.5417 26.3333H72.4167V3.29167C72.4167 1.47373 73.8904 0 75.7083 0C77.5263 0 79 1.47373 79 3.29167V75.7083C79 77.5263 77.5263 79 75.7083 79C73.8904 79 72.4167 77.5263 72.4167 75.7083V72.4167H6.58333V75.7083C6.58333 77.5263 5.10959 79 3.29167 79C1.47373 79 0 77.5263 0 75.7083V3.29167C0 1.47373 1.47373 0 3.29167 0ZM72.4167 65.8333H62.5417C64.3597 65.8333 65.8333 64.3597 65.8333 62.5417V49.375C65.8333 47.557 64.3597 46.0833 62.5417 46.0833H46.0833C44.2653 46.0833 42.7917 47.557 42.7917 49.375V62.5417C42.7917 64.3597 44.2653 65.8333 46.0833 65.8333H32.9167C34.7347 65.8333 36.2083 64.3597 36.2083 62.5417V42.7917C36.2083 40.9737 34.7347 39.5 32.9167 39.5H16.4583C14.6404 39.5 13.1667 40.9737 13.1667 42.7917V62.5417C13.1667 64.3597 14.6404 65.8333 16.4583 65.8333H6.58333V32.9167H72.4167V65.8333Z" fill="#E63946"/>
</g>
</g>
<defs>
<clipPath id="clip0_8_319">
<rect width="79" height="79" fill="white"/>
</clipPath>
</defs>
</svg>
