<svg width="79" height="79" viewBox="0 0 79 79" fill="none" xmlns="http://www.w3.org/2000/svg">
<g clip-path="url(#clip0_8_317)">
<path d="M72.4167 11.6854V23.0417C72.4167 23.9147 72.0699 24.7519 71.4526 25.3692C70.8353 25.9865 69.998 26.3333 69.125 26.3333H57.6042C57.127 26.3387 56.6544 26.2403 56.2191 26.045C55.7838 25.8496 55.3961 25.5619 55.083 25.2018C54.7699 24.8417 54.5388 24.4179 54.4058 23.9596C54.2727 23.5014 54.2409 23.0197 54.3125 22.5479C54.4673 21.7494 54.8987 21.0311 55.5309 20.5193C56.1631 20.0076 56.9555 19.7351 57.7688 19.75H61.5542C57.7202 15.4803 52.7287 12.4161 47.1862 10.9295C41.6437 9.44295 35.7887 9.5981 30.3327 11.3761C24.8766 13.1541 20.0544 16.4784 16.452 20.9451C12.8495 25.4119 10.6218 30.8287 10.0396 36.5375C9.95772 37.3523 9.57509 38.1073 8.96643 38.6551C8.35777 39.2028 7.56679 39.5041 6.74793 39.5C6.28651 39.5023 5.82976 39.4076 5.40732 39.222C4.98488 39.0364 4.60618 38.764 4.29579 38.4226C3.9854 38.0812 3.75027 37.6783 3.60564 37.2401C3.46101 36.802 3.41011 36.3383 3.45626 35.8792C4.14757 28.9685 6.81179 22.4025 11.1312 16.964C15.4507 11.5254 21.2431 7.44394 27.8179 5.2061C34.3926 2.96826 41.4722 2.66851 48.2126 4.3426C54.953 6.01669 61.0696 9.59398 65.8333 14.6479V11.5208C65.8279 11.0437 65.9263 10.5711 66.1217 10.1357C66.3171 9.70041 66.6048 9.31276 66.9649 8.99965C67.325 8.68654 67.7488 8.45546 68.207 8.32242C68.6653 8.18938 69.147 8.15756 69.6188 8.22917C70.4173 8.38396 71.1356 8.8154 71.6474 9.44759C72.1591 10.0798 72.4315 10.8722 72.4167 11.6854Z" fill="#E63946"/>
<path d="M6.58334 67.3146V55.9583C6.58334 55.0853 6.93014 54.2481 7.54745 53.6308C8.16476 53.0135 9.002 52.6667 9.87501 52.6667H21.3958C21.873 52.6613 22.3456 52.7597 22.7809 52.955C23.2163 53.1504 23.6039 53.4381 23.917 53.7982C24.2301 54.1583 24.4612 54.5821 24.5943 55.0404C24.7273 55.4986 24.7591 55.9803 24.6875 56.4521C24.5327 57.2506 24.1013 57.9689 23.4691 58.4807C22.8369 58.9924 22.0445 59.2649 21.2313 59.25H17.4458C21.2798 63.5197 26.2713 66.5839 31.8138 68.0705C37.3564 69.557 43.2113 69.4019 48.6674 67.6239C54.1234 65.8459 58.9456 62.5216 62.548 58.0549C66.1505 53.5881 68.3782 48.1713 68.9604 42.4625C69.0423 41.6477 69.4249 40.8927 70.0336 40.3449C70.6422 39.7972 71.4332 39.4959 72.2521 39.5C72.7135 39.4977 73.1702 39.5924 73.5927 39.778C74.0151 39.9636 74.3938 40.236 74.7042 40.5774C75.0146 40.9188 75.2498 41.3217 75.3944 41.7599C75.539 42.198 75.5899 42.6617 75.5438 43.1208C74.8524 50.0315 72.1882 56.5975 67.8688 62.036C63.5493 67.4746 57.7569 71.5561 51.1822 73.7939C44.6074 76.0317 37.5278 76.3315 30.7874 74.6574C24.0471 72.9833 17.9304 69.406 13.1667 64.3521V67.4792C13.1721 67.9563 13.0737 68.4289 12.8783 68.8643C12.6829 69.2996 12.3952 69.6872 12.0351 70.0004C11.6751 70.3135 11.2512 70.5445 10.793 70.6776C10.3347 70.8106 9.85302 70.8424 9.38126 70.7708C8.58276 70.616 7.86443 70.1846 7.35266 69.5524C6.84089 68.9202 6.56848 68.1278 6.58334 67.3146Z" fill="#E63946"/>
<path d="M40.6521 36.2083C34.8917 35.0562 34.8917 34.0688 34.8917 33.2458C34.8917 32.4229 35.2208 32.2583 35.7146 31.7646C36.6226 31.2764 37.6478 31.0486 38.6771 31.1062C40.5895 31.0897 42.4692 31.6023 44.1083 32.5875C44.4415 32.8594 44.8299 33.0555 45.2465 33.1622C45.6631 33.2688 46.0979 33.2835 46.5208 33.2052C46.9437 33.1269 47.3444 32.9575 47.6952 32.7087C48.046 32.4599 48.3384 32.1378 48.5521 31.7646C48.8342 31.428 49.0423 31.0358 49.1627 30.6135C49.2832 30.1912 49.3133 29.7483 49.2512 29.3135C49.1891 28.8788 49.0362 28.462 48.8023 28.0903C48.5684 27.7186 48.2588 27.4004 47.8938 27.1563C46.3288 26.1902 44.5992 25.5207 42.7917 25.1813V21.3958C42.7917 20.5228 42.4449 19.6856 41.8276 19.0683C41.2103 18.451 40.373 18.1042 39.5 18.1042C38.627 18.1042 37.7898 18.451 37.1724 19.0683C36.5551 19.6856 36.2083 20.5228 36.2083 21.3958V25.0167C31.2708 25.8396 27.9792 29.1313 27.9792 33.575C27.9792 38.0187 33.4104 41.6396 38.6771 42.6271C43.9438 43.6146 44.1083 44.7667 44.1083 45.5896C44.1083 46.4125 42.2979 47.8938 39.9938 47.8938C37.5704 47.9415 35.1989 47.1896 33.2458 45.7542C32.8801 45.511 32.4694 45.3434 32.038 45.2614C31.6065 45.1794 31.163 45.1846 30.7335 45.2766C30.3041 45.3686 29.8974 45.5456 29.5374 45.7973C29.1775 46.0489 28.8715 46.37 28.6375 46.7417C28.378 47.0504 28.1842 47.4088 28.0681 47.795C27.952 48.1812 27.9159 48.587 27.9621 48.9877C28.0083 49.3883 28.1359 49.7753 28.3369 50.1249C28.538 50.4745 28.8083 50.7794 29.1313 51.0208C31.2491 52.5071 33.6633 53.5177 36.2083 53.9833V57.6042C36.2083 58.4772 36.5551 59.3144 37.1724 59.9317C37.7898 60.549 38.627 60.8958 39.5 60.8958C40.373 60.8958 41.2103 60.549 41.8276 59.9317C42.4449 59.3144 42.7917 58.4772 42.7917 57.6042V53.9833C44.5971 53.7171 46.3003 52.979 47.7292 51.8438C48.7609 51.0863 49.5975 50.0943 50.1699 48.9495C50.7422 47.8048 51.0339 46.5402 51.0208 45.2604C51.0208 39.1708 45.425 37.1958 40.6521 36.2083Z" fill="#E63946"/>
</g>
<defs>
<clipPath id="clip0_8_317">
<rect width="79" height="79" fill="white"/>
</clipPath>
</defs>
</svg>
