<svg width="79" height="79" viewBox="0 0 79 79" fill="none" xmlns="http://www.w3.org/2000/svg">
<path d="M65.8333 45.2604C65.8333 43.897 64.728 42.7917 63.3646 42.7917H53.4896C52.1262 42.7917 51.0208 43.897 51.0208 45.2604V67.4792H46.0833V13.9896C46.0833 11.5922 46.0781 10.0426 45.9247 8.90077C45.7805 7.82995 45.5481 7.49434 45.3601 7.30642C45.1722 7.11849 44.8368 6.88607 43.766 6.74209C42.6241 6.58857 41.0744 6.58333 38.6771 6.58333C36.2798 6.58333 34.73 6.58857 33.5882 6.74209C32.5174 6.88607 32.1818 7.11849 31.9939 7.30642C31.806 7.49434 31.5735 7.82995 31.4296 8.90077C31.2761 10.0426 31.2708 11.5922 31.2708 13.9896V67.4792H26.3333V28.8021C26.3333 27.4386 25.228 26.3333 23.8646 26.3333H13.9896C12.6261 26.3333 11.5208 27.4386 11.5208 28.8021V67.4792H6.58332H5.76041C4.39697 67.4792 3.29166 68.5845 3.29166 69.9479C3.29166 71.3113 4.39697 72.4167 5.76041 72.4167H71.5937C72.9571 72.4167 74.0625 71.3113 74.0625 69.9479C74.0625 68.5845 72.9571 67.4792 71.5937 67.4792H70.7708H65.8333V45.2604Z" fill="#E63946"/>
</svg>
